<svg width="63" height="15" viewBox="0 0 63 15" fill="none" xmlns="http://www.w3.org/2000/svg">
<path d="M2.35156 0C3.53813 0 4.51856 0.28227 4.67356 0.64836L4.69491 0.75014L4.6875 13.7542C4.68725 14.1684 3.63775 14.5041 2.34331 14.5041C1.15678 14.5041 0.176312 14.2218 0.0213437 13.8557L0 13.7539L0.00740662 0.74986C0.00762537 0.33565 1.05716 0 2.35156 0ZM42.6472 1.80373L42.8741 1.71961C43.7062 1.45338 45.0084 1.42921 45.9259 1.6471L46.1887 1.71972L61.8031 6.7174C62.6347 6.9835 62.7106 7.3999 62.0306 7.6935L61.8041 7.7776L46.1897 12.7811C45.275 13.0742 43.7909 13.0745 42.875 12.7818C42.0425 12.5157 41.9659 12.0991 42.6459 11.8053L42.8728 11.7211L54.4688 8.004L11.728 8.0049C10.5414 8.0049 9.56081 7.7228 9.40562 7.3567L9.38422 7.2549C9.38422 6.8752 10.266 6.5615 11.4099 6.5118L11.728 6.5049L54.5094 6.504L42.8737 2.78028C42.0419 2.51398 41.9663 2.09732 42.6472 1.80373Z" fill="#FF0000"/>
</svg>
